<svg xmlns="http://www.w3.org/2000/svg" xmlns:xlink="http://www.w3.org/1999/xlink" width="1465" height="400" viewBox="0 0 1465 400">
  <defs>
    <clipPath id="clip-path">
      <rect id="Rectangle_1004" data-name="Rectangle 1004" width="1427.315" height="384.18" fill="none"/>
    </clipPath>
    <clipPath id="clip-Plan_de_travail_5">
      <rect width="1465" height="400"/>
    </clipPath>
  </defs>
  <g id="Plan_de_travail_5" data-name="Plan de travail – 5" clip-path="url(#clip-Plan_de_travail_5)">
    <g id="Groupe_380" data-name="Groupe 380" transform="translate(19 8)">
      <text id="Auto" transform="translate(126.727 308.426)" fill="#212121" font-size="178" font-family="'\32 9LTBukra-Bold', '\32 9LT Bukra'" font-weight="700"><tspan x="0" y="0" letter-spacing="0.294em">A</tspan><tspan y="0" letter-spacing="0.299em">u</tspan><tspan y="0" letter-spacing="0.28em">t</tspan><tspan y="0">o</tspan></text>
      <text id="pro" transform="translate(827.455 308.426)" fill="#4baf4f" font-size="178" font-family="'\32 9LTBukra-Bold', '\32 9LT Bukra'" font-weight="700"><tspan x="0" y="0" letter-spacing="0.3em">pr</tspan><tspan y="0">o</tspan></text>
      <g id="Groupe_379" data-name="Groupe 379">
        <g id="Groupe_378" data-name="Groupe 378" clip-path="url(#clip-path)">
          <path id="Tracé_205" data-name="Tracé 205" d="M0,80.681c9.423,10.243,17.278,20.955,27.2,29.192,43.213,35.9,91.565,54.015,148.279,38.97,84.637-22.455,169.288-17.422,254.689-3.606,43.812,7.089,88.662,7.759,133.352,7.7-34.962-4.243-70.058-7.6-104.846-12.955-42.506-6.54-84.614-15.681-127.14-22.017-57.092-8.5-113.391-.117-169.573,10.24-15.269,2.816-31.258,1.724-47.318,2.444.445-3.288.378-4.889.717-4.979,81.577-21.852,162.822-45.078,244.881-64.945C446,39.96,533.062,26.15,621.51,22.454c81.62-3.412,158.027,20.433,234.407,44.14,37.547,11.653,74.515,25.157,115.44,39.084-4.249-3.107-5.4-4.276-6.8-4.926-84.252-39.084-170-74.274-261.336-93.2C645.348-4.442,586.836.2,528.511,5.467,400.092,17.073,277.238,53.558,154,88.543c-31.918,9.058-64.238,19.91-98.092,10.97C37.852,94.742,20.406,87.643,0,80.681" transform="translate(0 0.002)" fill="#212121"/>
          <path id="Tracé_206" data-name="Tracé 206" d="M1092.482,109.575C961.675,68.442,827.4,51.89,690.478,53.491c-95.9,1.122-191.964,4.159-287.668-.1-95.677-4.259-191-16.532-286.473-25.285-3.988-.365-7.976-.7-11.964-1.055q-.256,1.447-.506,2.886,52.589,10.528,105.181,21.056c153.9,30.679,309.4,35.38,465.7,29.929,173.072-6.041,342.805,15.283,508.637,65.889" transform="translate(243.934 63.53)" fill="#212121"/>
          <path id="Tracé_207" data-name="Tracé 207" d="M710.782,121.228c-193.983-13.1-388.144-13.793-582.4-9.748,193.8,20.413,388.054,18.494,582.4,9.748" transform="translate(301.52 256.69)" fill="#4baf4f"/>
          <path id="Tracé_208" data-name="Tracé 208" d="M527.695,120.9c-46.471-29.139-97.64-52.743-150.325-66.257q-1.984,2.883-3.975,5.77c10.655,9.56,19.79,23.741,32.243,27.823" transform="translate(876.927 128.33)" fill="#4baf4f"/>
        </g>
      </g>
    </g>
  </g>
</svg>
